<svg width="40" height="40" viewBox="0 0 40 40" fill="none" xmlns="http://www.w3.org/2000/svg">
<path d="M29.75 37.5H10.25C6.125 37.5 2.75 33.8839 2.75 29.4643V29.1964L3.5 7.76786C3.625 3.34821 7 0 11 0H29C33 0 36.375 3.34821 36.5 7.76786L37.25 29.1964C37.375 31.3393 36.625 33.3482 35.25 34.9554C33.875 36.5625 32 37.5 30 37.5H29.75ZM11 2.67857C8.25 2.67857 6.125 4.95536 6 7.76786L5.25 29.4643C5.25 32.4107 7.5 34.8214 10.25 34.8214H30C31.375 34.8214 32.625 34.1518 33.5 33.0804C34.375 32.0089 34.875 30.6696 34.875 29.1964L34.125 7.76786C34 4.82143 31.875 2.67857 29.125 2.67857H11Z" fill="currentColor"/>
<path d="M20 16.0714C15.125 16.0714 11.25 11.9196 11.25 6.69643C11.25 5.89285 11.75 5.35714 12.5 5.35714C13.25 5.35714 13.75 5.89285 13.75 6.69643C13.75 10.4464 16.5 13.3929 20 13.3929C23.5 13.3929 26.25 10.4464 26.25 6.69643C26.25 5.89285 26.75 5.35714 27.5 5.35714C28.25 5.35714 28.75 5.89285 28.75 6.69643C28.75 11.9196 24.875 16.0714 20 16.0714Z" fill="currentColor"/>
</svg>
