<svg width="40" height="40" viewBox="0 0 40 40" fill="none" xmlns="http://www.w3.org/2000/svg">
<g clip-path="url(#clip0_105_449)">
<path d="M37.34 20.5181C37.2606 20.3569 37.2193 20.1797 37.2193 20C37.2193 19.8203 37.2606 19.6431 37.34 19.4819L38.8319 16.43C39.6625 14.7307 39.0044 12.7053 37.3336 11.8188L34.3329 10.2267C34.1739 10.143 34.0363 10.0238 33.9307 9.8785C33.8251 9.73317 33.7543 9.56551 33.7238 9.38846L33.1369 6.04247C32.8101 4.17951 31.0869 2.92764 29.2145 3.19256L25.851 3.66834C25.6732 3.69404 25.4918 3.67853 25.321 3.62301C25.1501 3.56748 24.9943 3.47343 24.8656 3.34811L22.4241 0.986246C21.0647 -0.328903 18.935 -0.328981 17.5756 0.986246L15.1341 3.34834C15.0053 3.47363 14.8495 3.56767 14.6787 3.62319C14.5078 3.67871 14.3265 3.69424 14.1487 3.66857L10.7852 3.1928C8.91216 2.92772 7.18951 4.17974 6.86272 6.0427L6.27585 9.38854C6.24535 9.56558 6.17457 9.73325 6.06898 9.8786C5.96339 10.0239 5.82581 10.1431 5.66687 10.2268L2.6661 11.819C0.995332 12.7054 0.33721 14.7309 1.16783 16.4302L2.65962 19.4821C2.73903 19.6432 2.78033 19.8205 2.78033 20.0002C2.78033 20.1798 2.73903 20.3571 2.65962 20.5182L1.16775 23.5701C0.337132 25.2694 0.995253 27.2948 2.66602 28.1812L5.66679 29.7734C5.82575 29.8571 5.96334 29.9762 6.06895 30.1216C6.17455 30.2669 6.24534 30.4346 6.27585 30.6116L6.86272 33.9576C7.16022 35.6535 8.61443 36.8429 10.2857 36.8428C10.4504 36.8428 10.6174 36.8312 10.7853 36.8074L14.1488 36.3317C14.3266 36.3059 14.5079 36.3214 14.6788 36.377C14.8496 36.4325 15.0054 36.5266 15.1342 36.6519L17.5756 39.0138C18.2555 39.6714 19.1275 40.0002 19.9998 40.0001C20.8719 40 21.7445 39.6713 22.424 39.0138L24.8656 36.6519C25.129 36.3971 25.4881 36.2807 25.851 36.3317L29.2145 36.8074C31.0877 37.0724 32.8101 35.8205 33.1369 33.9575L33.7239 30.6117C33.7544 30.4347 33.8252 30.267 33.9308 30.1216C34.0363 29.9763 34.1739 29.8572 34.3329 29.7734L37.3336 28.1812C39.0044 27.2948 39.6625 25.2693 38.8319 23.57L37.34 20.5181ZM36.2523 26.1432L33.2515 27.7354C32.2948 28.2431 31.6387 29.1461 31.4516 30.2129L30.8647 33.5589C30.8129 33.8609 30.6452 34.1308 30.3973 34.3109C30.1494 34.4911 29.8409 34.5672 29.5376 34.5231L26.1741 34.0473C25.1014 33.8954 24.04 34.2406 23.2615 34.9936L20.82 37.3554C20.6005 37.5693 20.3062 37.689 19.9998 37.689C19.6933 37.689 19.399 37.5693 19.1796 37.3554L16.7381 34.9935C16.0802 34.3571 15.22 34.0121 14.3221 34.0121C14.1575 34.0121 13.9917 34.0237 13.8256 34.0472L10.4621 34.523C10.1588 34.567 9.85036 34.4909 9.60245 34.3108C9.35454 34.1306 9.18679 33.8608 9.13497 33.5588L8.54802 30.2128C8.36084 29.1459 7.70475 28.2429 6.74795 27.7353L3.74719 26.1431C3.4759 26.0006 3.27105 25.7577 3.17634 25.4662C3.08163 25.1748 3.10456 24.8578 3.24024 24.5831L4.73211 21.5311C5.20773 20.558 5.20773 19.4419 4.73211 18.4688L3.24024 15.4169C3.10456 15.1421 3.08163 14.8252 3.17634 14.5337C3.27105 14.2422 3.4759 13.9993 3.74719 13.8568L6.74795 12.2646C7.70467 11.7569 8.36084 10.8539 8.54794 9.78705L9.13482 6.44114C9.18656 6.13908 9.35429 5.8692 9.60222 5.68906C9.85015 5.50893 10.1587 5.4328 10.4619 5.47692L13.8254 5.9527C14.8977 6.1045 15.9595 5.75942 16.738 5.00638L19.1795 2.64452C19.399 2.43061 19.6933 2.31089 19.9997 2.31089C20.3062 2.31089 20.6005 2.43061 20.8199 2.64452L23.2614 5.00638C24.0399 5.7595 25.1015 6.1045 26.1739 5.9527L29.5374 5.47692C29.8407 5.43284 30.1492 5.50899 30.3971 5.68911C30.645 5.86924 30.8127 6.1391 30.8645 6.44114L31.4514 9.78713C31.6386 10.854 32.2947 11.757 33.2515 12.2646L36.2522 13.8568C36.5235 13.9993 36.7284 14.2422 36.8231 14.5337C36.9178 14.8252 36.8949 15.1421 36.7592 15.4169L35.2673 18.4687C34.7917 19.4418 34.7917 20.558 35.2673 21.531L36.7592 24.5829C36.8949 24.8577 36.9179 25.1747 36.8232 25.4662C36.7285 25.7577 36.5236 26.0006 36.2523 26.1432Z" fill="currentColor"/>
<path d="M28.4283 11.5715C27.9779 11.121 27.2475 11.121 26.797 11.5715L11.5714 26.7972C11.1209 27.2477 11.1209 27.978 11.5714 28.4285C11.6784 28.5358 11.8055 28.6209 11.9455 28.6788C12.0855 28.7368 12.2355 28.7666 12.387 28.7664C12.6822 28.7664 12.9775 28.6538 13.2026 28.4285L28.4283 13.2029C28.8789 12.7524 28.8789 12.022 28.4283 11.5715ZM15.3858 9.61839C13.0537 9.61839 11.1562 11.5158 11.1562 13.848C11.1562 16.1801 13.0537 18.0776 15.3858 18.0776C17.718 18.0776 19.6154 16.1801 19.6154 13.848C19.6154 11.5158 17.718 9.61839 15.3858 9.61839ZM15.3858 15.7705C14.3258 15.7705 13.4633 14.908 13.4633 13.8479C13.4633 12.7878 14.3258 11.9254 15.3858 11.9254C16.4459 11.9254 17.3084 12.7878 17.3084 13.8479C17.3083 14.908 16.4459 15.7705 15.3858 15.7705ZM24.6139 21.9225C22.2817 21.9225 20.3843 23.8199 20.3843 26.1521C20.3843 28.4843 22.2817 30.3817 24.6139 30.3817C26.9461 30.3817 28.8435 28.4843 28.8435 26.1521C28.8435 23.8199 26.9461 21.9225 24.6139 21.9225ZM24.6139 28.0746C23.5538 28.0746 22.6913 27.2122 22.6913 26.1521C22.6913 25.092 23.5538 24.2296 24.6139 24.2296C25.674 24.2296 26.5364 25.092 26.5364 26.1521C26.5364 27.2122 25.674 28.0746 24.6139 28.0746Z" fill="currentColor"/>
</g>
<defs>
<clipPath id="clip0_105_449">
<rect width="40" height="40" fill="white"/>
</clipPath>
</defs>
</svg>
